PathFileType	4	(X/Y/Z)	W08_1_OpenSim.trc																																																																																																																						
DataRate	CameraRate	NumFrames	NumMarkers	Units	OrigDataRate	OrigDataStartFrame	OrigNumFrames																																																																																																																		
100	100	6	40	mm	100	2251	3000																																																																																																																		
Frame#	Time	R.ASIS			R.PSIS			S2			L.PSIS			L.ASIS			R.TH1			R.TH2			R.TH3			R.MKnee			R.Knee			R.SH1			R.SH2			R.SH3			R.SH4			R.Ankle			R.MAnkle			R.Heel			R.MT5			R.MT1			L.TH1			L.TH2			L.TH3			L.TH4			L.MKnee			L.Knee			L.SH1			L.SH2			L.SH3			L.Ankle			L.MAnkle			L.Heel			L.MT5			L.MT1			R.Acr			L.Acr			C7			T10			Clav			Sternum			R.Back		
		X1	Y1	Z1	X2	Y2	Z2	X3	Y3	Z3	X4	Y4	Z4	X5	Y5	Z5	X6	Y6	Z6	X7	Y7	Z7	X8	Y8	Z8	X9	Y9	Z9	X10	Y10	Z10	X11	Y11	Z11	X12	Y12	Z12	X13	Y13	Z13	X14	Y14	Z14	X15	Y15	Z15	X16	Y16	Z16	X17	Y17	Z17	X18	Y18	Z18	X19	Y19	Z19	X20	Y20	Z20	X21	Y21	Z21	X22	Y22	Z22	X23	Y23	Z23	X24	Y24	Z24	X25	Y25	Z25	X26	Y26	Z26	X27	Y27	Z27	X28	Y28	Z28	X29	Y29	Z29	X30	Y30	Z30	X31	Y31	Z31	X32	Y32	Z32	X33	Y33	Z33	X34	Y34	Z34	X35	Y35	Z35	X36	Y36	Z36	X37	Y37	Z37	X38	Y38	Z38	X39	Y39	Z39	X40	Y40	Z40
2251	22.5	1014.9072	1067.9585	-455.9933	827.1888	1071.8885	-550.4172	819.4061	1069.7136	-595.873	826.7867	1077.6465	-645.6763	1007.2266	1069.1288	-750.7736	1072.8535	767.4238	-418.9676	997.7481	734.1758	-412.8837	1043.5297	633.9213	-414.6803	1110.0195	522.5092	-531.1402	1097.6717	533.6929	-413.2067	1022.8419	389.9552	-405.1921	963.3748	294.982	-418.2094	953.5818	435.353	-407.1214	894.8373	337.9887	-408.9267	819.3525	197.3371	-409.8318	868.2021	188.7895	-499.0309	754.7432	198.8423	-474.6814	884.4815	97.8228	-372.8473	935.6844	73.5624	-455.7211	1017.0112	769.1407	-763.281	1012.3414	660.9406	-751.2968	932.5707	767.5756	-772.8395	932.7817	659.2205	-753.3065	984.131	512.149	-624.5263	978.608	516.9909	-734.5356	974.9622	382.2609	-748.0372	893.4927	390.6217	-752.5956	885.194	281.3208	-742.0356	918.5607	79.4	-730.4156	952.4251	92.619	-633.0735	855.4185	41.1823	-672.634	1026.4669	32.0897	-748.2479	1069.4708	44.5876	-651.1246	959.7588	1468.3727	-439.3577	936.3352	1460.1604	-766.3757	891.4982	1505.8523	-603.3796	864.4752	1180.3412	-598.4393	1030.1918	1413.3289	-608.5222	1060.1112	1269.9714	-599.6031	817.4756	1407.0623	-516.9268
2252	22.51	1013.3648	1068.2789	-456.402	825.6178	1072.1281	-550.8548	817.874	1069.8908	-596.3126	825.2825	1077.7776	-646.129	1005.8445	1069.0514	-751.23	1073.001	769.5256	-418.3735	998.2386	735.6165	-412.2559	1044.9469	635.7357	-413.8876	1112.7411	524.6445	-530.3525	1100.4626	535.9021	-412.5422	1030.7993	389.246	-404.0434	974.961	292.1382	-416.8115	959.835	431.9848	-405.8128	904.7944	332.4769	-407.3467	835.0546	188.3866	-407.8923	884.2626	181.7303	-497.0839	770.3671	186.853	-472.6531	904.4941	91.991	-370.682	956.6093	69.7088	-453.5233	1013.1785	768.8209	-763.6566	1007.6796	660.5461	-751.3612	929.1402	767.9136	-773.256	928.2374	659.5698	-753.7574	977.8486	511.9148	-624.8259	972.319	516.8261	-734.8467	968.0857	382.1411	-748.3059	886.6796	390.8156	-752.9381	878.0175	281.5511	-742.3131	910.6209	79.4424	-730.437	944.5123	92.6794	-633.0211	847.3811	41.2844	-672.676	1018.4114	32.1014	-748.344	1061.4498	44.5807	-651.1503	958.3267	1468.2429	-439.5568	936.9	1460.7635	-766.6667	891.0529	1506.1782	-603.9108	863.2382	1180.7061	-599.3397	1029.6096	1413.3838	-608.4418	1059.1632	1269.9453	-599.6435	816.3755	1407.3853	-518.0196
2253	22.52	1011.8918	1068.5072	-456.7479	824.0696	1072.3086	-551.2362	816.3834	1069.9985	-596.6942	823.82	1077.8373	-646.5205	1004.4414	1068.8688	-751.6214	1072.884	771.3096	-417.7835	998.4325	736.839	-411.5994	1045.9227	637.2752	-413.1248	1114.8868	526.4456	-529.5906	1102.7501	537.8113	-411.8953	1038.6401	388.3088	-402.7783	986.6876	289.0905	-415.1871	966.028	428.1789	-404.3151	914.9307	326.5935	-405.4898	851.3953	179.1003	-405.5878	900.8475	174.3781	-494.7859	786.7625	174.3744	-470.16	925.2258	86.1468	-368.1699	978.1023	65.9411	-451.0127	1009.5683	768.4269	-763.8009	1003.1886	660.1243	-751.3014	925.851	768.1836	-773.6677	923.8364	659.8667	-754.1845	971.5631	511.6766	-625.0256	966.1185	516.654	-735.087	961.2261	382.0099	-748.5062	879.9247	391.0075	-753.232	870.8451	281.8005	-742.5588	902.6967	79.4894	-730.4437	936.5669	92.7208	-632.957	839.4055	41.3463	-672.6856	1010.3843	32.115	-748.4612	1053.4215	44.5941	-651.1647	956.9844	1468.0012	-439.682	937.4561	1461.2551	-766.8621	890.6506	1506.4164	-604.34	862.024	1180.9816	-600.115	1029.0625	1413.3353	-608.3038	1058.2372	1269.8063	-599.643	815.3424	1407.6226	-518.9826
2254	22.53	1010.4955	1068.6462	-457.0225	822.5506	1072.4486	-551.5561	814.9508	1070.0509	-597.0114	822.4171	1077.8408	-646.8453	1003.0446	1068.5922	-751.9437	1072.506	772.7488	-417.2133	998.3196	737.8154	-410.9438	1046.446	638.5139	-412.4219	1116.4499	527.883	-528.8712	1104.525	539.3907	-411.2803	1046.3342	387.1823	-401.4314	998.5285	285.8984	-413.3675	972.1513	423.9764	-402.6589	925.2459	320.4086	-403.3876	868.3619	169.6214	-402.9463	917.9095	166.846	-492.1756	803.9314	161.5631	-467.2382	946.6085	80.4435	-365.344	1000.1019	62.3783	-448.2207	1006.1677	767.9569	-763.7249	998.8611	659.676	-751.1173	922.6985	768.3859	-774.0671	919.5795	660.1073	-754.579	965.2838	511.4299	-625.132	960.0169	516.4733	-735.2528	954.3961	381.8702	-748.6387	873.2311	391.1985	-753.4763	863.6808	282.0657	-742.7672	894.7876	79.5401	-730.4376	928.5868	92.7368	-632.8807	831.4856	41.3674	-672.665	1002.3892	32.1248	-748.5898	1045.3853	44.6287	-651.1708	955.7303	1467.6547	-439.7308	937.9959	1461.6377	-766.9615	890.2958	1506.5721	-604.6595	860.8443	1181.1721	-600.7626	1028.5573	1413.1875	-608.1084	1057.3406	1269.5631	-599.6016	814.3791	1407.7743	-519.8159
2255	22.54	1009.1856	1068.6952	-457.216	821.0699	1072.5662	-551.8039	813.5941	1070.0624	-597.2529	821.0905	1077.8038	-647.0937	1001.6848	1068.2361	-752.1914	1071.8673	773.819	-416.6789	997.894	738.5234	-410.3185	1046.5046	639.4329	-411.8032	1117.4266	528.9355	-528.2075	1105.777	540.6142	-410.71	1053.8506	385.9052	-400.0396	1010.4542	282.6292	-411.396	978.1904	419.4231	-400.8811	935.744	313.9887	-401.0785	885.9329	160.0981	-400.0083	935.3946	159.2573	-489.3082	821.8612	148.5867	-463.9476	968.5602	75.0289	-362.2507	1022.5457	59.1309	-445.1877	1002.948	767.4145	-763.4542	994.6786	659.2046	-750.8162	919.6693	768.5249	-774.4469	915.4588	660.2917	-754.9344	959.0211	511.1689	-625.1578	954.0173	516.2802	-735.3424	947.6102	381.7253	-748.7111	866.5975	391.3927	-753.6733	856.5311	282.3437	-742.9395	886.8884	79.5949	-730.4223	920.5804	92.726	-632.7916	823.6063	41.3559	-672.6204	994.4183	32.1244	-748.7145	1037.3429	44.6809	-651.175	954.561	1467.2123	-439.7007	938.5127	1461.9145	-766.9648	889.9927	1506.6501	-604.8608	859.7119	1181.2847	-601.28	1028.1016	1412.9462	-607.8506	1056.4825	1269.2268	-599.5162	813.4864	1407.8417	-520.5207
2256	22.55	1007.974	1068.6522	-457.3198	819.643	1072.6759	-551.9654	812.3321	1070.0476	-597.4048	819.8549	1077.7411	-647.2536	1000.3906	1067.8152	-752.3571	1070.9669	774.5035	-416.1948	997.157	738.9492	-409.7482	1046.0859	640.0189	-411.2852	1117.8146	529.5917	-527.6079	1106.4954	541.4577	-410.1977	1061.1596	384.5188	-398.6324	1022.4276	279.3606	-409.3225	984.1336	414.5652	-399.0218	946.4269	307.4019	-398.61	904.0754	150.6825	-396.8274	953.2523	151.7447	-486.2518	840.5222	135.6242	-460.3641	990.9903	70.041	-358.9477	1045.3627	56.3039	-441.9658	999.8734	766.8082	-763.0225	990.6178	658.7148	-750.4103	916.7451	768.6074	-774.7972	911.4587	660.4242	-755.2445	952.7871	510.8882	-625.1205	948.1175	516.0711	-735.3556	940.8842	381.5781	-748.7352	860.0223	391.5963	-753.8254	849.403	282.6341	-743.0808	878.992	79.6561	-730.4022	912.5613	92.6925	-632.6916	815.7444	41.3288	-672.5607	986.4544	32.1112	-748.8232	1029.302	44.7415	-651.1843	953.472	1466.6851	-439.5876	939.004	1462.0898	-766.8711	889.7446	1506.6526	-604.9376	858.6406	1181.3256	-601.6638	1027.701	1412.6222	-607.5235	1055.6764	1268.8114	-599.3836	812.6639	1407.8254	-521.0984
